<svg width="20" height="18" viewBox="0 0 20 18" fill="black" xmlns="http://www.w3.org/2000/svg">
<path d="M2.06154 4.66725V4.66667C2.06154 2.12006 4.04551 0.1 6.53846 0.1C9.03141 0.1 11.0154 2.12006 11.0154 4.66667C11.0154 7.21328 9.03141 9.23333 6.53846 9.23333C3.6373 9.23333 1.26137 11.6255 1.20859 14.5667H0.100741C0.140123 11.9111 1.74526 9.62751 4.00905 8.63356L4.17355 8.56134L4.02548 8.45958C3.41732 8.04166 2.91968 7.47684 2.57697 6.81521C2.23426 6.15356 2.05716 5.4157 2.06154 4.66725ZM9.90769 4.66667C9.90769 2.74661 8.42628 1.23333 6.53846 1.23333C4.65064 1.23333 3.16923 2.74661 3.16923 4.66667C3.16923 6.58672 4.65064 8.1 6.53846 8.1C8.42628 8.1 9.90769 6.58672 9.90769 4.66667Z" stroke-width="0.2"/>
<path d="M6.33 12.5818L10.195 11.3277L11.815 9.49622C11.9556 9.34121 12.1326 9.2163 12.3332 9.13049C12.5338 9.04468 12.753 9.00011 12.975 9H16.975C17.219 9.00114 17.459 9.05597 17.6742 9.15973C17.8895 9.2635 18.0734 9.41306 18.21 9.59546L19.565 11.3999C19.8457 11.771 19.9972 12.2092 20 12.6585V16.2177C20 16.3373 19.9473 16.4521 19.8536 16.5367C19.7598 16.6213 19.6326 16.6688 19.5 16.6688H18.43C18.3149 17.051 18.0635 17.3885 17.7147 17.6291C17.3659 17.8697 16.9391 18 16.5 18C16.0609 18 15.6341 17.8697 15.2853 17.6291C14.9365 17.3885 14.6851 17.051 14.57 16.6688H11.43C11.3149 17.051 11.0635 17.3885 10.7147 17.6291C10.3659 17.8697 9.93905 18 9.5 18C9.06095 18 8.6341 17.8697 8.2853 17.6291C7.9365 17.3885 7.68514 17.051 7.57 16.6688H6.5C6.36739 16.6688 6.24021 16.6213 6.14645 16.5367C6.05268 16.4521 6 16.3373 6 16.2177V13.0058C6.00004 12.9131 6.03175 12.8227 6.09079 12.7468C6.14984 12.6709 6.23337 12.6133 6.33 12.5818ZM16.5 17.1199C16.6978 17.1199 16.8911 17.067 17.0556 16.9678C17.22 16.8687 17.3482 16.7278 17.4239 16.5629C17.4996 16.3981 17.5194 16.2167 17.4808 16.0417C17.4422 15.8667 17.347 15.7059 17.2071 15.5797C17.0673 15.4535 16.8891 15.3676 16.6951 15.3328C16.5011 15.298 16.3 15.3159 16.1173 15.3841C15.9346 15.4524 15.7784 15.5681 15.6685 15.7164C15.5586 15.8648 15.5 16.0392 15.5 16.2177C15.5 16.457 15.6054 16.6864 15.7929 16.8556C15.9804 17.0248 16.2348 17.1199 16.5 17.1199ZM9.5 17.1199C9.69778 17.1199 9.89112 17.067 10.0556 16.9678C10.22 16.8687 10.3482 16.7278 10.4239 16.5629C10.4996 16.3981 10.5194 16.2167 10.4808 16.0417C10.4422 15.8667 10.347 15.7059 10.2071 15.5797C10.0673 15.4535 9.88907 15.3676 9.69509 15.3328C9.50111 15.298 9.30004 15.3159 9.11732 15.3841C8.93459 15.4524 8.77841 15.5681 8.66853 15.7164C8.55865 15.8648 8.5 16.0392 8.5 16.2177C8.5 16.457 8.60536 16.6864 8.79289 16.8556C8.98043 17.0248 9.23478 17.1199 9.5 17.1199ZM7 15.7666H7.57C7.68514 15.3843 7.9365 15.0469 8.2853 14.8063C8.6341 14.5657 9.06095 14.4354 9.5 14.4354C9.93905 14.4354 10.3659 14.5657 10.7147 14.8063C11.0635 15.0469 11.3149 15.3843 11.43 15.7666H14.57C14.6851 15.3843 14.9365 15.0469 15.2853 14.8063C15.6341 14.5657 16.0609 14.4354 16.5 14.4354C16.9391 14.4354 17.3659 14.5657 17.7147 14.8063C18.0635 15.0469 18.3149 15.3843 18.43 15.7666H19V12.6585C19.0002 12.3865 18.9096 12.1209 18.74 11.8961L17.385 10.0917C17.338 10.0321 17.2757 9.98376 17.2034 9.95076C17.1311 9.91775 17.051 9.90109 16.97 9.90221H12.97C12.8965 9.9021 12.824 9.9166 12.7574 9.94467C12.6909 9.97273 12.632 10.0137 12.585 10.0646L10.885 11.9908C10.8264 12.0549 10.7507 12.1046 10.665 12.1352L7 13.3216V15.7666Z" />
<path d="M10.5 11.5L6.5 13V16H8L8.5 15H10L11 16H15L16 15H17L18 16H19.5V12L17.5 9.5H12.5L10.5 11.5Z" />
</svg>
