<svg width="11" height="12" viewBox="0 0 11 12" fill="black" xmlns="http://www.w3.org/2000/svg">
<path d="M9.77778 1.2H9.16667V0.6C9.16667 0.27 8.89167 0 8.55556 0C8.21944 0 7.94444 0.27 7.94444 0.6V1.2H3.05556V0.6C3.05556 0.27 2.78056 0 2.44444 0C2.10833 0 1.83333 0.27 1.83333 0.6V1.2H1.22222C0.543889 1.2 0.00611111 1.74 0.00611111 2.4L0 10.8C0 11.1183 0.128769 11.4235 0.357981 11.6485C0.587192 11.8736 0.898069 12 1.22222 12H9.77778C10.45 12 11 11.46 11 10.8V2.4C11 1.74 10.45 1.2 9.77778 1.2ZM9.77778 4.8V10.8H1.22222V4.8H9.77778Z"/>
</svg>
