<svg width="16" height="16" viewBox="0 0 16 16" fill="none" xmlns="http://www.w3.org/2000/svg">
<path d="M16 7.99997C15.9996 9.38952 15.6374 10.755 14.9491 11.9621C14.2607 13.1691 13.2699 14.1761 12.0743 14.8839C10.8786 15.5918 9.51919 15.976 8.12991 15.9989C6.74063 16.0218 5.36933 15.6825 4.15099 15.0144L1.85005 15.6718C1.63902 15.732 1.41573 15.7347 1.20331 15.6796C0.990888 15.6245 0.797051 15.5137 0.64187 15.3585C0.486688 15.2033 0.375804 15.0095 0.320697 14.7971C0.26559 14.5846 0.268265 14.3613 0.328443 14.1503L0.986482 11.8491C0.399719 10.7797 0.0652424 9.59032 0.00862406 8.37182C-0.0479942 7.15333 0.174745 5.93802 0.659813 4.81882C1.14488 3.69962 1.87943 2.70616 2.80731 1.9144C3.73518 1.12263 4.8318 0.553537 6.01333 0.250618C7.19486 -0.0523016 8.43001 -0.0810227 9.62434 0.16665C10.8187 0.414323 11.9406 0.931832 12.9042 1.67961C13.8679 2.42739 14.6478 3.38563 15.1844 4.48108C15.7209 5.57652 15.9999 6.78016 16 7.99997Z" />
</svg>
