<svg width="13" height="12" viewBox="0 0 13 12" fill="black" xmlns="http://www.w3.org/2000/svg">
<path d="M12.0773 2.32L12.0867 2.30867L9.42001 0.148667L8.58001 1.18467L9.95801 2.30067C9.61617 2.5084 9.34473 2.81417 9.17899 3.17822C9.01325 3.54228 8.96088 3.94778 9.02868 4.342C9.12868 4.94133 9.54134 5.45933 10.0753 5.74933C10.672 6.074 11.1953 6.044 11.6607 5.87867L11.6507 10C11.6515 10.1104 11.6248 10.2192 11.5729 10.3167C11.5211 10.4142 11.4457 10.4972 11.3537 10.5582C11.2617 10.6192 11.156 10.6563 11.046 10.6662C10.9361 10.676 10.8254 10.6583 10.724 10.6147C10.6446 10.5807 10.5726 10.5316 10.512 10.47C10.4504 10.4082 10.4015 10.335 10.3682 10.2543C10.335 10.1737 10.3179 10.0872 10.318 10L10.3333 8.66667C10.334 8.40425 10.2827 8.14431 10.1823 7.90184C10.082 7.65937 9.9346 7.43919 9.74868 7.254C9.56295 7.06787 9.34235 6.92019 9.09949 6.81941C8.85663 6.71863 8.59628 6.66672 8.33334 6.66667H7.66668V1.33333C7.66668 0.979711 7.5262 0.640573 7.27615 0.390524C7.0261 0.140476 6.68697 0 6.33334 0H1.66668C1.31305 0 0.973916 0.140476 0.723868 0.390524C0.473819 0.640573 0.333344 0.979711 0.333344 1.33333V10.6667C0.333344 11.0203 0.473819 11.3594 0.723868 11.6095C0.973916 11.8595 1.31305 12 1.66668 12H6.33334C6.68697 12 7.0261 11.8595 7.27615 11.6095C7.5262 11.3594 7.66668 11.0203 7.66668 10.6667V8H8.33334C8.42401 8 8.51134 8.018 8.59401 8.052C8.75267 8.12146 8.87915 8.24841 8.94801 8.40733C8.98259 8.48941 9.00028 8.57761 9.00001 8.66667L8.98401 10C8.98401 10.2707 9.03668 10.5327 9.14134 10.7787C9.24201 11.018 9.38668 11.232 9.56868 11.4127C9.75373 11.5997 9.97421 11.748 10.2172 11.8488C10.4602 11.9496 10.7209 12.001 10.984 12C11.2547 12 11.516 11.948 11.7627 11.8427C12.0013 11.7427 12.216 11.598 12.3967 11.4153C12.5833 11.23 12.7313 11.0095 12.8321 10.7665C12.933 10.5236 12.9846 10.263 12.984 10L13 4C12.9993 3.66508 12.9145 3.3357 12.7533 3.04214C12.5921 2.74858 12.3596 2.50026 12.0773 2.32ZM6.33334 3.33333H1.66668V1.33333H6.33334V3.33333ZM11 4.66667C10.8232 4.66667 10.6536 4.59643 10.5286 4.4714C10.4036 4.34638 10.3333 4.17681 10.3333 4C10.3333 3.82319 10.4036 3.65362 10.5286 3.5286C10.6536 3.40357 10.8232 3.33333 11 3.33333C11.1768 3.33333 11.3464 3.40357 11.4714 3.5286C11.5964 3.65362 11.6667 3.82319 11.6667 4C11.6667 4.17681 11.5964 4.34638 11.4714 4.4714C11.3464 4.59643 11.1768 4.66667 11 4.66667Z" />
</svg>
