<svg width="8" height="14" viewBox="0 0 8 14" fill="black" xmlns="http://www.w3.org/2000/svg">
<path d="M7.61463 0.274937C7.28763 -0.0574661 6.74264 -0.0574661 6.41564 0.274937L0.686407 6.09892C0.623254 6.16299 0.57315 6.23909 0.538965 6.32286C0.504779 6.40664 0.487183 6.49644 0.487183 6.58714C0.487183 6.67784 0.504779 6.76764 0.538965 6.85142C0.57315 6.93519 0.623254 7.01129 0.686407 7.07536L6.41564 12.8993C6.74945 13.2387 7.28763 13.2387 7.62144 12.8993C7.95525 12.56 7.95525 12.0129 7.62144 11.6736L2.61432 6.5906L7.62144 1.50068C7.94844 1.16135 7.94844 0.614266 7.61463 0.274937Z"/>
</svg>
