<svg width="10" height="12" viewBox="0 0 10 12" fill="black" xmlns="http://www.w3.org/2000/svg">
<path d="M5 0C7.76154 0 10 2.21101 10 4.93868C10 7.02559 8.51539 9.29991 5.58462 11.786C5.42165 11.9242 5.21388 12.0002 4.99904 12C4.7842 11.9998 4.57656 11.9235 4.41385 11.785L4.22 11.6188C1.41897 9.19759 0 6.97899 0 4.93868C0 2.21101 2.23846 0 5 0ZM5 3.03919C4.48997 3.03919 4.00083 3.23931 3.64018 3.59554C3.27953 3.95176 3.07692 4.4349 3.07692 4.93868C3.07692 5.44245 3.27953 5.9256 3.64018 6.28182C4.00083 6.63805 4.48997 6.83817 5 6.83817C5.51003 6.83817 5.99917 6.63805 6.35982 6.28182C6.72047 5.9256 6.92308 5.44245 6.92308 4.93868C6.92308 4.4349 6.72047 3.95176 6.35982 3.59554C5.99917 3.23931 5.51003 3.03919 5 3.03919Z"/>
</svg>
