<svg width="13" height="16" viewBox="0 0 13 16" fill="black" xmlns="http://www.w3.org/2000/svg">
<path d="M3.23987 0.0851427C3.67745 -0.0467904 4.14702 -0.0248718 4.57041 0.14725C4.9938 0.319371 5.34547 0.631311 5.56687 1.03114L5.64187 1.18014L6.30287 2.65114C6.50378 3.09763 6.56899 3.59332 6.49041 4.07658C6.41182 4.55983 6.1929 5.00932 5.86087 5.36914L5.72887 5.50114L4.68487 6.47414C4.49687 6.65214 4.63787 7.34114 5.31887 8.51914C5.92987 9.57914 6.42887 10.0741 6.67287 10.1011H6.71587L6.76887 10.0911L8.81887 9.46414C9.09438 9.37965 9.3884 9.3763 9.66576 9.45451C9.94312 9.53272 10.1921 9.68917 10.3829 9.90514L10.4749 10.0201L11.8309 11.9001C12.097 12.2685 12.2297 12.7165 12.2071 13.1704C12.1846 13.6243 12.0081 14.0569 11.7069 14.3971L11.5849 14.5231L11.0419 15.0371C10.5552 15.4981 9.94634 15.8095 9.28777 15.9345C8.6292 16.0595 7.9486 15.9927 7.32687 15.7421C5.39187 14.9621 3.63387 13.1801 2.03687 10.4141C0.43687 7.64114 -0.22813 5.22414 0.0688697 3.15414C0.158831 2.5283 0.416647 1.93851 0.814926 1.44744C1.21321 0.956366 1.73707 0.582356 2.33087 0.365143L2.52387 0.301143L3.23987 0.0851427Z"/>
</svg>
