<svg width="15" height="10" viewBox="0 0 15 10" fill="black" xmlns="http://www.w3.org/2000/svg">
<path d="M0.0731649 8.81953L3.7135 0.486198C3.84293 0.189844 4.12496 0 4.43537 0H6.97676L6.91296 0.603125C6.89994 0.726042 6.99655 0.833333 7.12025 0.833333H7.87962C8.00332 0.833333 8.09993 0.726042 8.08691 0.603125L8.02311 0H10.5645C10.8752 0 11.1572 0.189844 11.2866 0.486198L14.927 8.81953C15.1678 9.37135 14.7835 10 14.2046 10H9.07857L8.81008 7.45625C8.78769 7.24427 8.60904 7.08333 8.39576 7.08333H6.60411C6.39083 7.08333 6.21218 7.24427 6.18979 7.45625L5.9213 10H0.795295C0.216393 10 -0.167979 9.37135 0.0731649 8.81953ZM8.21868 1.85313C8.21327 1.80192 8.1891 1.75454 8.15082 1.72011C8.11255 1.68568 8.06288 1.66664 8.01139 1.66667H6.98822C6.88171 1.66667 6.79213 1.74714 6.78093 1.85313L6.66114 2.98802C6.64161 3.17266 6.7864 3.33333 6.97181 3.33333H8.02754C8.21321 3.33333 8.35774 3.17266 8.33821 2.98802L8.21868 1.85313ZM6.78015 6.25H8.21998C8.46738 6.25 8.66034 6.03568 8.6343 5.78958L8.50227 4.53958C8.47988 4.3276 8.30123 4.16667 8.08795 4.16667H6.91218C6.6989 4.16667 6.52026 4.3276 6.49786 4.53958L6.36583 5.78958C6.33979 6.03568 6.53275 6.25 6.78015 6.25Z" />
</svg>
