<svg width="23" height="18" viewBox="0 0 23 18" fill="black" xmlns="http://www.w3.org/2000/svg">
<path d="M4.01443 12.5193C3.16858 12.5193 2.48184 11.8737 2.48184 11.0797C2.48184 10.2857 3.16858 9.64014 4.01443 9.64014C4.86029 9.64014 5.54702 10.2857 5.54702 11.0797C5.54702 11.8737 4.86029 12.5193 4.01443 12.5193ZM4.01443 10.1923C3.47844 10.1923 3.04016 10.5907 3.04016 11.0824C3.04016 11.5742 3.47844 11.9726 4.01443 11.9726C4.55042 11.9726 4.9887 11.5742 4.9887 11.0824C4.99149 10.5907 4.55321 10.1923 4.01443 10.1923Z"  fill-opacity="0.6"/>
<path d="M18.9857 12.5193C18.1398 12.5193 17.4531 11.8737 17.4531 11.0797C17.4531 10.2857 18.1398 9.64014 18.9857 9.64014C19.8315 9.64014 20.5182 10.2857 20.5182 11.0797C20.5182 11.8737 19.8315 12.5193 18.9857 12.5193ZM18.9857 10.1923C18.4497 10.1923 18.0114 10.5907 18.0114 11.0824C18.0114 11.5742 18.4497 11.9726 18.9857 11.9726C19.5216 11.9726 19.9599 11.5742 19.9599 11.0824C19.9599 10.5907 19.5216 10.1923 18.9857 10.1923Z" fill-opacity="0.6"/>
<path d="M17.4753 6.29944H5.52727C5.33186 6.29944 5.15041 6.20878 5.01641 6.0412C4.83496 5.81867 4.76796 5.489 4.84333 5.18406L5.10016 4.10439C5.37653 2.94505 6.18609 2.16483 7.1129 2.16483H15.8897C16.8165 2.16483 17.6261 2.94505 17.9024 4.10439L18.1593 5.18406C18.2318 5.489 18.1649 5.81867 17.9862 6.0412C17.8522 6.20878 17.6707 6.29944 17.4753 6.29944ZM7.1129 2.71702C6.45129 2.71702 5.85948 3.32691 5.64452 4.23076L5.38769 5.31043C5.34861 5.47252 5.39328 5.62362 5.45748 5.70054C5.46865 5.71428 5.49936 5.74999 5.53007 5.74999H17.4781C17.5088 5.74999 17.5395 5.71702 17.5507 5.70054C17.6121 5.62362 17.6568 5.47252 17.6205 5.31043L17.3637 4.23076C17.1487 3.32417 16.5569 2.71702 15.8953 2.71702H7.1129Z" fill-opacity="0.6"/>
<path d="M20.3284 18H20.147C18.8433 18 17.7797 16.956 17.7797 15.6703V15.261C17.7797 15.0604 17.6122 14.8956 17.4084 14.8956H5.59158C5.38779 14.8956 5.22029 15.0604 5.22029 15.261V15.6703C5.22029 16.9533 4.15949 18 2.85302 18H2.67156C1.36788 18 0.304285 16.956 0.304285 15.6703V14.1429C0.106081 13.8654 0 13.5357 0 13.1978V11.0604C0 9.9478 0.307076 8.84615 0.887729 7.87637L1.59959 6.68407C2.07416 5.89011 2.43148 5.04121 2.6576 4.15934L2.95351 3.01099C3.41413 1.23901 5.09467 0 7.04321 0H15.9568C17.9053 0 19.5859 1.23901 20.0437 3.01099L20.3396 4.15934C20.5685 5.04121 20.923 5.89011 21.3976 6.68407L22.1095 7.87637C22.6901 8.8489 22.9972 9.9478 22.9972 11.0604V13.1978C22.9972 13.5357 22.8911 13.8654 22.6929 14.1429V15.6703C22.6957 16.9533 21.6349 18 20.3284 18ZM5.59158 13.794H17.4084C18.2292 13.794 18.8963 14.4506 18.8963 15.2582V15.6676C18.8963 16.3462 19.4575 16.8984 20.147 16.8984H20.3284C21.018 16.8984 21.5791 16.3462 21.5791 15.6676V13.7335L21.727 13.5769C21.7968 13.5027 21.8834 13.3736 21.8834 13.1951V11.0577C21.8834 10.1401 21.6293 9.23352 21.1492 8.43132L20.4373 7.23901C19.9097 6.35714 19.5133 5.40934 19.2593 4.42857L18.9633 3.28022C18.6311 1.99725 17.3945 1.0989 15.9568 1.0989H7.04321C5.60554 1.0989 4.36886 1.99725 4.03666 3.28297L3.74075 4.43132C3.48671 5.41483 3.0903 6.35989 2.56269 7.24176L1.85083 8.43407C1.37068 9.23626 1.11664 10.1456 1.11664 11.0604V13.1978C1.11664 13.3764 1.20039 13.5027 1.27297 13.5769L1.42093 13.7363V15.6703C1.42093 16.3489 1.98204 16.9011 2.67156 16.9011H2.85302C3.54254 16.9011 4.10365 16.3489 4.10365 15.6703V15.261C4.10365 14.4533 4.77085 13.794 5.59158 13.794Z"  fill-opacity="0.6"/>
<path d="M15.9428 11.3544H7.05714C6.90361 11.3544 6.77798 11.2308 6.77798 11.0797C6.77798 10.9286 6.90361 10.805 7.05714 10.805H15.9428C16.0963 10.805 16.222 10.9286 16.222 11.0797C16.222 11.2308 16.0963 11.3544 15.9428 11.3544Z" fill-opacity="0.6"/>
</svg>
